<?xml version="1.0" encoding="utf-8"?>
<!-- Generator: Adobe Illustrator 19.2.1, SVG Export Plug-In . SVG Version: 6.00 Build 0)  -->
<svg version="1.1" id="layer" xmlns="http://www.w3.org/2000/svg" xmlns:xlink="http://www.w3.org/1999/xlink" x="0px" y="0px"
	 viewBox="0 0 652 652" style="enable-background:new 0 0 652 652;" xml:space="preserve">
<style type="text/css">
	.st0{fill-rule:evenodd;clip-rule:evenodd;fill:#231F20;}
</style>
<path class="st0" d="M468.1,363.9c-9.6,0-19.1,0.1-28.7,0c-9.3-0.2-18.4-1.1-27.3-4.1c-2.5-0.8-4.8-1.9-7.1-3.2
	c-3.1-1.8-4.3-4.6-4.5-8c-0.2-3.9,0.8-7.6,1.8-11.4c2.4-9,5.5-17.7,9.9-26c6.6-12.5,17-19.4,30.8-21.6c4.6-0.7,9.2-1,13.9-1
	c18.2,0,36.4,0,54.7,0c0.8,0,1.5,0,2.2,0.2c1.6,0.6,2.6,2.2,2.1,3.7c-1,3.1-2,6.3-3.1,9.3c-0.5,1.3-1.5,2.1-2.9,2.3
	c-0.7,0.1-1.5,0.1-2.2,0.1c-15.1,0-30.2,0-45.3,0.1c-3.8,0-7.6,0.6-11.2,2c-5.1,2-8.3,5.8-10.8,10.5c-3.8,7.2-6.7,14.7-8.2,22.8
	c-0.1,0.6-0.2,1.3-0.2,2c0,1.7,0.4,2.3,2,3c4,1.6,8.3,2.3,12.6,2.5c9.9,0.6,19.9,0.2,29.8,0.3c0.9,0,1.3-0.4,1.5-1.2
	c0.9-3.7,1.8-7.5,2.8-11.2c0.3-1,0.1-1.4-1.1-1.4c-8.1,0-16.2,0-24.3,0c-3.3,0-4.6-1.8-3.6-4.9c0.8-2.5,1.7-5.1,2.6-7.6
	c0.8-2.3,1.9-3.1,4.4-3.1c16.3,0,32.7,0,49,0c3.1,0,4.4,1.6,3.7,4.5c-3.1,12.7-6.3,25.4-9.5,38.1c-0.6,2.3-1.9,3.2-4.5,3.2
	C487.6,364,477.9,364,468.1,363.9L468.1,363.9"/>
<path class="st0" d="M195.6,288.7c10.9,0,21.7-0.1,32.6,0.1c6,0.1,12.1,0.6,17.6,3.7c0.4,0.2,0.8,0.4,1.1,0.7
	c4.5,2.8,5.5,5.6,3.8,10.6c-1.4,4.2-3.6,8-6,11.8c-2.7,4.4-5.8,8.5-9.8,11.9c-2.9,2.5-6,4.4-9.8,5.1c-1.1,0.2-1.3,0.4-0.5,1.4
	c6.9,8.3,13.7,16.7,20.6,25.1c0.8,1,1.4,2,0.8,3.3c-0.6,1.4-1.8,1.7-3.2,1.7c-7.8,0-15.7,0-23.5,0c-2.1,0-3.8-0.8-5.1-2.5
	c-7.1-9-14.2-17.9-21.2-26.9c-0.6-0.8-1.3-1.2-2.3-1.2c-4.2,0-8.4,0.1-12.6,0c-1.3,0-1.7,0.5-2,1.6c-2,8.4-4.1,16.8-6.2,25.2
	c-0.7,2.7-1.9,3.7-4.6,3.7c-6.6,0-13.2,0-19.9,0c-3.3,0-4.7-1.8-3.9-5c3.3-13.4,6.7-26.8,10-40.1c2.2-8.7,4.3-17.4,6.4-26.1
	c0.7-3,1.9-4,5.1-4C173.9,288.7,184.8,288.7,195.6,288.7L195.6,288.7 M199.8,304.6L199.8,304.6c-4.9,0-9.8,0-14.7-0.1
	c-0.9,0-1.5,0.2-1.7,1.2c-0.8,3.6-1.7,7.2-2.6,10.7c-0.2,0.8-0.1,1.2,0.9,1.2c7.6,0,15.3,0,22.9-0.1c1.8,0,3.5-0.4,5-1.3
	c4-2.3,6.7-5.7,8.8-9.7c0.4-0.8,0.2-1.1-0.6-1.3c-1.2-0.4-2.4-0.7-3.6-0.7C209.4,304.6,204.6,304.6,199.8,304.6z"/>
<path class="st0" d="M99.2,288.7c13.8,0,27.6,0,41.4,0c0.5,0,1.1,0,1.6,0c2.2,0.3,3.4,1.8,3,4c-0.7,3-1.4,6-2.3,9
	c-0.4,1.5-1.5,2.4-3.1,2.7c-0.7,0.1-1.4,0.1-2.1,0.1c-20.4,0-40.8,0-61.2,0c-1.4,0-2.2,0.4-2.9,1.6c-1.9,3.2-3.7,6.5-5.3,10
	c-0.6,1.4-0.6,1.5,1,1.5c18.6,0,37.1,0,55.7,0c0.5,0,1,0,1.5,0c2.3,0.1,3.7,1.6,3.2,3.9c-0.6,3-1.4,6.1-2.2,9
	c-0.5,1.9-1.9,2.7-4.1,2.7c-15.9,0-31.7,0-47.6,0c-4.3,0-8.7,0-13,0c-1,0-1.6,0.3-1.9,1.3c-0.8,2.6-1.7,5.1-2.4,7.8
	c-0.6,2.3-0.5,2.4,1.7,3.1c4,1.2,8.1,1.8,12.3,1.9c18.1,0.6,36.2,0.1,54.3,0.3c0.5,0,1.1,0,1.6,0c1.9,0.2,3.1,1.6,2.8,3.4
	c-0.6,3.7-1.5,7.3-2.8,10.8c-0.6,1.6-2.2,1.9-3.7,2.2c-0.4,0.1-0.9,0-1.3,0c-20.3,0-40.7,0-61,0c-7.9,0-15.7-0.5-23.3-2.3
	c-3.5-0.9-6.8-2.3-9.9-4.1c-3-1.7-3.9-4.3-3.4-7.6c0.9-6.3,3-12.2,5.3-18.1c4.8-12.5,10.3-24.6,17.6-35.7c1-1.5,2.1-3,3.1-4.5
	c1.4-2.1,3.3-2.9,5.7-2.9c11.8,0,23.6,0,35.3,0C94.9,288.7,97,288.7,99.2,288.7"/>
<path class="st0" d="M612,364c-3.2,0-6.3,0-9.5,0c-2.7,0-4-1.1-4.6-3.7c-0.6-3.2-1.3-6.4-1.8-9.5c-0.2-1-0.6-1.4-1.7-1.4
	c-14.1,0-28.1,0-42.2,0c-0.9,0-1.5,0.3-2.1,1.1c-2.7,3.6-5.4,7.2-8.1,10.8c-1.4,1.9-3.2,2.8-5.6,2.8c-7.3,0-14.5,0-21.8,0l-1.1,0
	c-2.6-0.3-3.7-2.6-2.2-4.7c1.6-2.3,3.5-4.5,5.2-6.7c13.4-16.4,26.5-33.1,39.7-49.6c3.2-4,6.4-8,9.6-12c1.2-1.5,2.7-2.1,4.5-2.1
	c12.1,0,24.2,0,36.3,0c2.5,0,3.8,1.3,4.4,4c2.2,10.4,4.5,20.9,6.7,31.3c2.5,11.8,5.1,23.5,7.6,35.3c0.6,2.9-0.7,4.6-3.7,4.6
	C618.4,364,615.2,364,612,364 M578,333.2c4.4,0,8.8,0,13.1,0c1.6,0,1.6,0,1.3-1.5c-1.7-8.6-3.3-17.3-5-25.9
	c-0.2-1.1-0.6-1.5-1.7-1.4c-0.8,0.1-1.2,0.4-1.6,0.9c-6.7,8.9-13.4,17.8-20.1,26.8c-0.2,0.3-0.7,0.6-0.4,1l1,0.1
	C569,333.2,573.5,333.2,578,333.2z"/>
<path class="st0" d="M311.7,288.7c15.6,0,31.2,0,46.8,0c0.7,0,1.4,0,2.1,0.2c1.7,0.5,2.6,1.6,2.3,3.3c-0.5,3.6-1.5,7.1-2.7,10.5
	c-0.6,1.7-2.4,2.1-4.2,2.1c-10.2,0-20.4,0-30.6,0c-2.6,0-2.3-0.5-3,2.4c-4.4,17.8-8.8,35.5-13.1,53.3c-0.6,2.2-2,3.4-4.3,3.4
	c-7.1,0-14.3,0-21.4,0c-2.9,0-4.1-1.8-3.4-4.7c2.2-8.8,4.4-17.7,6.5-26.5c2.2-8.8,4.3-17.6,6.5-26.4c0.4-1.4,0.3-1.5-1.2-1.5
	c-10.2,0-20.3,0-30.5,0c-3.2,0-4.6-1.9-3.8-5c0.6-2.5,1.3-5.1,2-7.6c0.6-2.3,2.1-3.5,4.5-3.5c2.4,0,4.8,0,7.2,0
	C284.8,288.7,298.2,288.7,311.7,288.7"/>
<path class="st0" d="M368.9,364c-3.4,0-6.8,0-10.1,0c-3.2,0-4.6-1.7-3.8-4.8c4.1-16.6,8.2-33.2,12.3-49.9c1.4-5.7,2.6-11.3,4.2-17
	c0.7-2.5,2.1-3.6,4.6-3.6c7.1,0,14.2,0,21.3,0c3.1,0,4.4,1.6,3.6,4.7c-4.4,18-8.9,36-13.3,53.9c-1,4.1-2,8.3-3,12.4
	c-0.7,2.9-2.4,4.2-5.3,4.2C375.9,364,372.4,364,368.9,364"/>
<path class="st0" d="M468.1,363.9c-9.6,0-19.1,0.1-28.7,0c-9.3-0.2-18.4-1.1-27.3-4.1c-2.5-0.8-4.8-1.9-7.1-3.2
	c-3.1-1.8-4.3-4.6-4.5-8c-0.2-3.9,0.8-7.6,1.8-11.4c2.4-9,5.5-17.7,9.9-26c6.6-12.5,17-19.4,30.8-21.6c4.6-0.7,9.2-1,13.9-1
	c18.2,0,36.4,0,54.7,0c0.8,0,1.5,0,2.2,0.2c1.6,0.6,2.6,2.2,2.1,3.7c-1,3.1-2,6.3-3.1,9.3c-0.5,1.3-1.5,2.1-2.9,2.3
	c-0.7,0.1-1.5,0.1-2.2,0.1c-15.1,0-30.2,0-45.3,0.1c-3.8,0-7.6,0.6-11.2,2c-5.1,2-8.3,5.8-10.8,10.5c-3.8,7.2-6.7,14.7-8.2,22.8
	c-0.1,0.6-0.2,1.3-0.2,2c0,1.7,0.4,2.3,2,3c4,1.6,8.3,2.3,12.6,2.5c9.9,0.6,19.9,0.2,29.8,0.3c0.9,0,1.3-0.4,1.5-1.2
	c0.9-3.7,1.8-7.5,2.8-11.2c0.3-1,0.1-1.4-1.1-1.4c-8.1,0-16.2,0-24.3,0c-3.3,0-4.6-1.8-3.6-4.9c0.8-2.5,1.7-5.1,2.6-7.6
	c0.8-2.3,1.9-3.1,4.4-3.1c16.3,0,32.7,0,49,0c3.1,0,4.4,1.6,3.7,4.5c-3.1,12.7-6.3,25.4-9.5,38.1c-0.6,2.3-1.9,3.2-4.5,3.2
	C487.6,364,477.9,364,468.1,363.9L468.1,363.9"/>
<path class="st0" d="M195.6,288.7c10.9,0,21.7-0.1,32.6,0.1c6,0.1,12.1,0.6,17.6,3.7c0.4,0.2,0.8,0.4,1.1,0.7
	c4.5,2.8,5.5,5.6,3.8,10.6c-1.4,4.2-3.6,8-6,11.8c-2.7,4.4-5.8,8.5-9.8,11.9c-2.9,2.5-6,4.4-9.8,5.1c-1.1,0.2-1.3,0.4-0.5,1.4
	c6.9,8.3,13.7,16.7,20.6,25.1c0.8,1,1.4,2,0.8,3.3c-0.6,1.4-1.8,1.7-3.2,1.7c-7.8,0-15.7,0-23.5,0c-2.1,0-3.8-0.8-5.1-2.5
	c-7.1-9-14.2-17.9-21.2-26.9c-0.6-0.8-1.3-1.2-2.3-1.2c-4.2,0-8.4,0.1-12.6,0c-1.3,0-1.7,0.5-2,1.6c-2,8.4-4.1,16.8-6.2,25.2
	c-0.7,2.7-1.9,3.7-4.6,3.7c-6.6,0-13.2,0-19.9,0c-3.3,0-4.7-1.8-3.9-5c3.3-13.4,6.7-26.8,10-40.1c2.2-8.7,4.3-17.4,6.4-26.1
	c0.7-3,1.9-4,5.1-4C173.9,288.7,184.8,288.7,195.6,288.7L195.6,288.7 M199.8,304.6L199.8,304.6c-4.9,0-9.8,0-14.7-0.1
	c-0.9,0-1.5,0.2-1.7,1.2c-0.8,3.6-1.7,7.2-2.6,10.7c-0.2,0.8-0.1,1.2,0.9,1.2c7.6,0,15.3,0,22.9-0.1c1.8,0,3.5-0.4,5-1.3
	c4-2.3,6.7-5.7,8.8-9.7c0.4-0.8,0.2-1.1-0.6-1.3c-1.2-0.4-2.4-0.7-3.6-0.7C209.4,304.6,204.6,304.6,199.8,304.6z"/>
<path class="st0" d="M99.2,288.7c13.8,0,27.6,0,41.4,0c0.5,0,1.1,0,1.6,0c2.2,0.3,3.4,1.8,3,4c-0.7,3-1.4,6-2.3,9
	c-0.4,1.5-1.5,2.4-3.1,2.7c-0.7,0.1-1.4,0.1-2.1,0.1c-20.4,0-40.8,0-61.2,0c-1.4,0-2.2,0.4-2.9,1.6c-1.9,3.2-3.7,6.5-5.3,10
	c-0.6,1.4-0.6,1.5,1,1.5c18.6,0,37.1,0,55.7,0c0.5,0,1,0,1.5,0c2.3,0.1,3.7,1.6,3.2,3.9c-0.6,3-1.4,6.1-2.2,9
	c-0.5,1.9-1.9,2.7-4.1,2.7c-15.9,0-31.7,0-47.6,0c-4.3,0-8.7,0-13,0c-1,0-1.6,0.3-1.9,1.3c-0.8,2.6-1.7,5.1-2.4,7.8
	c-0.6,2.3-0.5,2.4,1.7,3.1c4,1.2,8.1,1.8,12.3,1.9c18.1,0.6,36.2,0.1,54.3,0.3c0.5,0,1.1,0,1.6,0c1.9,0.2,3.1,1.6,2.8,3.4
	c-0.6,3.7-1.5,7.3-2.8,10.8c-0.6,1.6-2.2,1.9-3.7,2.2c-0.4,0.1-0.9,0-1.3,0c-20.3,0-40.7,0-61,0c-7.9,0-15.7-0.5-23.3-2.3
	c-3.5-0.9-6.8-2.3-9.9-4.1c-3-1.7-3.9-4.3-3.4-7.6c0.9-6.3,3-12.2,5.3-18.1c4.8-12.5,10.3-24.6,17.6-35.7c1-1.5,2.1-3,3.1-4.5
	c1.4-2.1,3.3-2.9,5.7-2.9c11.8,0,23.6,0,35.3,0C94.9,288.7,97,288.7,99.2,288.7"/>
<path class="st0" d="M612,364c-3.2,0-6.3,0-9.5,0c-2.7,0-4-1.1-4.6-3.7c-0.6-3.2-1.3-6.4-1.8-9.5c-0.2-1-0.6-1.4-1.7-1.4
	c-14.1,0-28.1,0-42.2,0c-0.9,0-1.5,0.3-2.1,1.1c-2.7,3.6-5.4,7.2-8.1,10.8c-1.4,1.9-3.2,2.8-5.6,2.8c-7.3,0-14.5,0-21.8,0l-1.1,0
	c-2.6-0.3-3.7-2.6-2.2-4.7c1.6-2.3,3.5-4.5,5.2-6.7c13.4-16.4,26.5-33.1,39.7-49.6c3.2-4,6.4-8,9.6-12c1.2-1.5,2.7-2.1,4.5-2.1
	c12.1,0,24.2,0,36.3,0c2.5,0,3.8,1.3,4.4,4c2.2,10.4,4.5,20.9,6.7,31.3c2.5,11.8,5.1,23.5,7.6,35.3c0.6,2.9-0.7,4.6-3.7,4.6
	C618.4,364,615.2,364,612,364 M578,333.2c4.4,0,8.8,0,13.1,0c1.6,0,1.6,0,1.3-1.5c-1.7-8.6-3.3-17.3-5-25.9
	c-0.2-1.1-0.6-1.5-1.7-1.4c-0.8,0.1-1.2,0.4-1.6,0.9c-6.7,8.9-13.4,17.8-20.1,26.8c-0.2,0.3-0.7,0.6-0.4,1l1,0.1
	C569,333.2,573.5,333.2,578,333.2z"/>
<path class="st0" d="M311.7,288.7c15.6,0,31.2,0,46.8,0c0.7,0,1.4,0,2.1,0.2c1.7,0.5,2.6,1.6,2.3,3.3c-0.5,3.6-1.5,7.1-2.7,10.5
	c-0.6,1.7-2.4,2.1-4.2,2.1c-10.2,0-20.4,0-30.6,0c-2.6,0-2.3-0.5-3,2.4c-4.4,17.8-8.8,35.5-13.1,53.3c-0.6,2.2-2,3.4-4.3,3.4
	c-7.1,0-14.3,0-21.4,0c-2.9,0-4.1-1.8-3.4-4.7c2.2-8.8,4.4-17.7,6.5-26.5c2.2-8.8,4.3-17.6,6.5-26.4c0.4-1.4,0.3-1.5-1.2-1.5
	c-10.2,0-20.3,0-30.5,0c-3.2,0-4.6-1.9-3.8-5c0.6-2.5,1.3-5.1,2-7.6c0.6-2.3,2.1-3.5,4.5-3.5c2.4,0,4.8,0,7.2,0
	C284.8,288.7,298.2,288.7,311.7,288.7"/>
<path class="st0" d="M368.9,364c-3.4,0-6.8,0-10.1,0c-3.2,0-4.6-1.7-3.8-4.8c4.1-16.6,8.2-33.2,12.3-49.9c1.4-5.7,2.6-11.3,4.2-17
	c0.7-2.5,2.1-3.6,4.6-3.6c7.1,0,14.2,0,21.3,0c3.1,0,4.4,1.6,3.6,4.7c-4.4,18-8.9,36-13.3,53.9c-1,4.1-2,8.3-3,12.4
	c-0.7,2.9-2.4,4.2-5.3,4.2C375.9,364,372.4,364,368.9,364"/>
</svg>
